<?xml version="1.0" standalone="no"?>
<!DOCTYPE svg PUBLIC "-//W3C//DTD SVG 20010904//EN"
 "http://www.w3.org/TR/2001/REC-SVG-20010904/DTD/svg10.dtd">
<svg version="1.0" xmlns="http://www.w3.org/2000/svg"
 width="300.000000pt" height="291.000000pt" viewBox="0 0 300.000000 291.000000"
 preserveAspectRatio="xMidYMid meet">
<metadata>
Created by potrace 1.10, written by Peter Selinger 2001-2011
</metadata>
<g transform="translate(0.000000,291.000000) scale(0.100000,-0.100000)"
fill="#000000" stroke="none">
<path d="M237 2760 c-14 -11 -35 -36 -47 -54 -20 -34 -21 -42 -18 -458 l3
-424 23 -29 c51 -65 51 -65 343 -65 l265 0 83 -80 c45 -44 91 -80 102 -80 38
0 59 31 59 88 0 29 4 61 9 71 12 22 67 81 75 81 4 0 5 -48 4 -107 l-3 -108
-35 -3 c-49 -5 -70 -27 -70 -73 0 -33 8 -47 56 -98 31 -33 61 -58 68 -55 6 2
27 -7 46 -21 19 -14 41 -25 50 -25 19 0 84 -64 79 -78 -6 -15 -130 -142 -139
-142 -4 0 -26 -37 -49 -81 l-41 -81 0 -123 c0 -88 4 -127 13 -137 7 -7 19 -29
27 -48 7 -19 21 -46 30 -60 9 -14 22 -39 29 -56 15 -38 235 -254 259 -254 9 0
28 -9 42 -20 14 -11 41 -20 60 -20 19 0 50 -9 69 -21 32 -19 48 -20 274 -19
221 1 243 2 273 20 21 13 49 20 84 20 37 0 59 6 77 20 14 11 32 20 40 20 8 0
28 9 44 21 16 11 38 21 49 22 11 1 75 56 143 124 67 67 137 137 155 155 19 18
59 84 89 146 l55 112 -4 103 c-3 86 -7 107 -26 134 -16 22 -22 45 -22 83 0 29
-7 64 -15 78 -8 15 -19 38 -25 52 -6 14 -26 54 -45 90 -19 36 -35 70 -35 76 0
6 -9 21 -20 34 -13 15 -20 37 -20 62 0 32 -7 47 -42 83 -42 43 -45 45 -103 45
-57 0 -63 -2 -97 -37 -20 -21 -39 -49 -43 -63 -8 -27 -163 -190 -181 -190 -6
0 -46 -18 -89 -40 -43 -22 -84 -40 -91 -40 -17 0 -18 17 -1 35 27 29 43 53 70
106 26 54 27 62 27 214 0 150 -1 160 -27 216 -15 32 -31 59 -35 59 -4 0 -8 6
-8 13 -1 26 -149 156 -171 149 -4 0 -19 10 -33 23 -19 18 -26 34 -26 63 0 45
-27 82 -59 82 -11 0 -21 -4 -21 -9 0 -5 -20 -17 -44 -26 -24 -9 -59 -32 -77
-51 -32 -33 -35 -34 -115 -34 -65 0 -86 -4 -106 -19 -13 -11 -33 -21 -43 -23
-26 -4 -35 -11 -121 -95 -41 -40 -74 -81 -74 -90 0 -10 -11 -31 -25 -48 l-24
-30 -1 414 c0 401 -1 415 -21 447 -11 19 -33 43 -49 54 -27 19 -43 20 -418 20
-375 0 -390 -1 -415 -20z m823 -40 c0 -13 7 -20 20 -20 20 0 20 -7 20 -445 0
-438 0 -445 -20 -445 -13 0 -20 -7 -20 -20 0 -15 -7 -20 -26 -20 l-27 0 5 -85
c6 -84 6 -85 -18 -85 -19 0 -24 5 -24 24 0 19 -4 23 -20 19 -16 -4 -20 0 -20
21 0 19 5 26 20 26 17 0 20 7 20 40 0 33 3 40 20 40 15 0 20 7 20 26 0 20 4
25 23 22 l22 -3 3 443 2 442 -405 0 -405 0 2 -442 3 -443 295 -2 c290 -1 295
-2 298 -22 2 -13 11 -21 23 -21 12 0 19 -7 19 -20 0 -15 -7 -20 -25 -20 -18 0
-25 5 -25 20 0 20 -7 20 -295 20 -288 0 -295 0 -295 20 0 13 -7 20 -20 20 -20
0 -20 7 -20 445 0 438 0 445 20 445 13 0 20 7 20 20 0 20 7 20 405 20 398 0
405 0 405 -20z m-728 -83 c-27 -29 -28 -58 -2 -82 16 -14 20 -31 20 -80 0 -48
4 -66 20 -83 25 -27 31 -27 61 -3 21 16 24 28 24 80 0 34 3 61 8 61 4 0 7 -24
7 -53 0 -31 6 -61 15 -74 10 -14 12 -24 5 -28 -16 -10 -12 -45 10 -72 15 -19
20 -41 20 -83 0 -44 5 -64 22 -85 21 -27 21 -28 3 -41 -16 -12 -23 -9 -57 18
-35 27 -42 29 -63 18 -30 -16 -35 -36 -35 -135 0 -90 15 -125 54 -125 27 0 41
14 50 53 5 22 12 27 36 27 24 0 30 -4 30 -22 0 -42 65 -80 85 -48 8 13 35 1
35 -15 0 -11 -39 -13 -192 -12 l-193 2 -2 380 c-2 209 -1 390 2 403 4 16 13
22 32 22 l26 0 -21 -23z m228 16 c-30 -3 -58 -9 -62 -16 -5 -8 -13 -8 -30 1
-13 6 -34 13 -48 15 -14 2 25 4 85 4 61 0 85 -2 55 -4z m454 -9 c3 -9 6 -189
6 -400 l0 -385 -44 -47 -45 -47 -43 43 c-34 33 -51 42 -78 42 -33 1 -34 1 -15
15 12 10 30 13 51 9 25 -4 36 -1 52 16 17 19 19 26 9 47 -8 18 -8 29 1 44 19
30 14 110 -7 137 -20 23 -46 29 -56 12 -16 -26 -20 -1 -20 119 l0 129 30 1
c17 0 39 1 50 2 11 1 27 -1 36 -5 26 -11 69 30 69 68 0 17 -5 37 -12 44 -9 9
-8 21 2 53 12 35 12 45 -1 67 -21 38 -45 49 -69 34 -16 -10 -24 -10 -40 0 -43
27 -80 -26 -80 -114 l0 -56 -27 7 c-26 7 -28 11 -31 68 -2 49 -8 65 -27 83
-23 21 -27 22 -50 10 -22 -12 -28 -12 -42 3 -16 16 -5 17 179 17 169 0 197 -2
202 -16z m-544 -49 c0 -20 -5 -25 -26 -25 l-26 0 3 -85 c4 -83 3 -85 -18 -85
-22 0 -23 4 -23 85 0 77 -2 85 -19 85 -18 0 -35 33 -23 44 3 3 34 6 69 6 61 0
63 -1 63 -25z m165 -85 c0 -107 -1 -110 -22 -110 -18 0 -23 6 -23 25 0 18 -5
25 -20 25 -15 0 -20 -7 -20 -25 0 -19 -5 -25 -22 -25 -23 0 -23 2 -21 107 2
60 3 109 3 111 0 1 28 2 63 2 l62 0 0 -110z m85 25 l0 -85 39 0 c26 0 41 -5
45 -16 10 -27 -3 -34 -67 -34 l-62 0 0 110 c0 107 0 110 22 110 22 0 23 -3 23
-85z m170 40 c0 -38 3 -45 20 -45 17 0 20 7 20 46 0 41 2 45 21 42 18 -2 22
-10 23 -46 1 -37 -2 -42 -21 -42 -16 0 -23 -6 -23 -20 0 -13 7 -20 20 -20 17
0 20 -7 20 -45 0 -38 -3 -45 -20 -45 -17 0 -20 7 -20 45 0 38 -3 45 -20 45
-17 0 -20 -7 -20 -45 0 -41 -2 -45 -25 -45 l-25 0 0 110 0 110 25 0 c23 0 25
-4 25 -45z m-250 -235 c0 -15 -7 -20 -25 -20 -25 0 -25 -1 -25 -85 0 -78 -2
-85 -20 -85 -18 0 -20 7 -20 85 0 84 0 85 -25 85 -18 0 -25 5 -25 20 0 18 7
20 70 20 63 0 70 -2 70 -20z m165 -85 l0 -105 -68 0 -67 0 1 105 1 105 66 0
67 0 0 -105z m-160 -32 c0 -32 4 -69 8 -81 8 -22 7 -23 -13 -12 -16 8 -20 18
-16 33 3 12 6 43 6 70 0 26 3 47 8 47 4 0 7 -26 7 -57z m1175 -28 c0 -41 -2
-45 -25 -45 -18 0 -25 -5 -25 -20 0 -17 7 -20 45 -20 40 0 45 -2 45 -23 0 -20
4 -22 45 -19 46 4 46 4 39 -23 -6 -26 -5 -27 20 -21 23 6 26 3 26 -19 0 -18 5
-25 20 -25 13 0 20 -7 20 -20 0 -13 7 -20 20 -20 17 0 20 -7 20 -44 0 -39 2
-44 20 -39 19 5 20 0 20 -190 0 -190 -1 -195 -20 -190 -18 5 -20 0 -20 -41 0
-39 -3 -46 -20 -46 -13 0 -20 -7 -20 -20 0 -14 -7 -20 -24 -20 -19 0 -23 -4
-19 -20 4 -16 0 -20 -22 -20 -21 0 -26 -4 -23 -21 3 -20 9 -22 86 -23 79 -1
82 0 82 22 0 20 5 22 46 22 41 0 46 2 41 20 -5 18 0 20 39 20 37 0 44 3 44 20
0 13 7 20 20 20 15 0 20 7 20 25 0 22 3 25 26 19 23 -6 25 -4 22 17 -2 19 2
25 20 27 14 2 22 10 22 23 0 12 7 19 20 19 17 0 20 7 20 40 0 33 3 40 20 40
15 0 20 7 20 25 0 24 2 25 65 25 63 0 65 -1 65 -25 0 -18 5 -25 20 -25 18 0
20 -7 20 -60 0 -58 1 -60 26 -60 24 0 25 -2 18 -45 -6 -44 -5 -45 20 -45 24 0
26 -4 26 -40 0 -33 3 -40 20 -40 17 0 20 -7 20 -46 0 -41 2 -46 20 -41 19 5
20 0 20 -84 0 -83 1 -89 20 -86 19 2 21 -4 23 -126 2 -126 2 -127 -20 -127
-20 0 -23 -5 -23 -44 0 -39 -2 -44 -20 -39 -18 5 -20 0 -20 -41 0 -39 -3 -46
-20 -46 -13 0 -20 -7 -20 -20 0 -15 -7 -20 -26 -20 -21 0 -24 -4 -19 -20 5
-16 2 -20 -19 -20 -21 0 -26 -5 -26 -26 0 -21 -4 -24 -20 -19 -17 5 -20 2 -20
-20 0 -22 -4 -26 -20 -22 -16 4 -20 0 -20 -19 0 -19 -5 -24 -26 -24 -21 0 -24
-4 -19 -20 5 -17 2 -20 -20 -20 -21 0 -26 -4 -23 -22 3 -21 -1 -22 -39 -19
-41 2 -43 1 -43 -24 0 -25 -2 -27 -42 -23 -39 3 -43 1 -41 -19 3 -22 0 -23
-86 -23 -84 0 -89 -1 -84 -20 5 -20 0 -20 -251 -20 -249 0 -256 1 -256 20 0
18 -7 20 -65 20 -62 0 -65 1 -65 24 0 23 -4 25 -42 23 -39 -2 -43 0 -40 21 3
18 -1 22 -24 22 -21 0 -25 4 -21 20 4 16 0 20 -19 20 -17 0 -24 6 -24 20 0 13
-7 20 -20 20 -13 0 -20 7 -20 20 0 13 -7 20 -20 20 -15 0 -20 7 -20 25 0 22
-3 25 -27 19 -26 -7 -26 -7 -20 40 6 44 6 46 -18 46 -23 0 -25 4 -25 44 0 39
-2 44 -20 39 -19 -5 -20 0 -20 146 0 144 1 151 20 151 17 0 20 7 20 45 0 40 2
45 23 42 17 -2 22 3 20 21 -2 17 2 22 22 22 18 0 25 5 25 20 0 13 7 20 20 20
13 0 20 7 20 20 0 13 7 20 20 20 13 0 20 7 20 20 0 15 7 20 26 20 21 0 25 4
22 23 -2 16 -9 21 -26 20 -18 -2 -22 2 -22 23 0 21 -4 25 -20 21 -16 -4 -20 0
-20 19 0 22 -4 24 -46 24 -41 0 -46 2 -41 20 5 18 0 20 -39 20 -37 0 -44 3
-44 20 0 13 -7 20 -20 20 -15 0 -20 7 -20 25 0 20 -5 24 -22 22 -20 -2 -23 3
-24 41 l-2 42 64 0 64 0 0 150 0 150 25 0 c24 0 25 2 19 40 -6 38 -5 40 20 40
19 0 26 5 26 20 0 13 7 20 20 20 15 0 20 7 20 26 0 21 4 24 20 19 16 -5 20 -2
20 19 0 24 3 26 46 26 41 0 46 2 41 20 -5 19 0 20 104 20 102 0 109 1 109 20
0 13 7 20 20 20 14 0 20 7 20 23 0 20 4 22 40 19 37 -4 40 -2 40 22 0 21 5 26
25 26 23 0 25 -4 25 -45z m-1353 -105 c-4 -16 0 -20 19 -20 17 0 24 -6 24 -20
0 -13 7 -20 20 -20 13 0 20 7 20 20 0 13 7 20 20 20 13 0 20 7 20 20 0 14 7
20 23 20 22 0 22 -2 22 -107 0 -104 -1 -108 -22 -111 -22 -3 -23 0 -23 66 0
65 -1 70 -20 65 -11 -3 -20 -14 -20 -24 0 -14 -7 -19 -26 -19 -21 0 -24 4 -19
20 5 16 2 20 -17 20 -22 0 -23 -4 -23 -62 0 -58 -2 -63 -22 -66 -23 -3 -23 -2
-23 107 l0 111 26 0 c21 0 25 -4 21 -20z m339 -2 c-3 -20 -8 -23 -45 -20 -38
3 -41 2 -41 -23 0 -22 3 -25 20 -20 16 5 20 2 20 -19 0 -19 -5 -26 -20 -26
-13 0 -20 -7 -20 -20 0 -17 7 -20 46 -20 41 0 45 -2 42 -21 -3 -19 -9 -21 -67
-21 l-64 0 -1 106 -1 106 67 0 c65 0 68 -1 64 -22z m84 -43 c0 -63 -1 -65 -25
-65 -24 0 -25 2 -25 65 0 63 1 65 25 65 24 0 25 -2 25 -65z m-73 -84 c-18 -7
-27 16 -20 49 l6 34 12 -39 c6 -23 7 -42 2 -44z m73 -47 c0 -21 -4 -25 -22
-22 -15 2 -24 11 -26 26 -3 18 1 22 22 22 21 0 26 -5 26 -26z m40 -203 c0 -17
-32 -35 -43 -24 -3 2 -3 13 0 24 7 25 43 25 43 0z"/>
<path d="M550 2530 c0 -33 3 -40 20 -40 17 0 20 7 20 40 0 33 -3 40 -20 40
-17 0 -20 -7 -20 -40z"/>
<path d="M720 2255 c0 -58 2 -65 20 -65 18 0 20 7 20 65 0 58 -2 65 -20 65
-18 0 -20 -7 -20 -65z"/>
<path d="M1350 1705 l0 -105 -60 0 c-53 0 -60 -2 -60 -20 0 -14 -7 -20 -22
-20 -22 -1 -22 -1 -4 -12 16 -9 23 -7 40 14 18 23 32 27 102 33 84 7 124 -2
124 -29 0 -8 9 -16 20 -19 23 -6 27 -27 5 -27 -8 0 -15 -4 -15 -10 0 -5 6 -7
14 -4 8 3 16 -2 19 -13 3 -10 5 1 6 25 1 36 -2 42 -19 42 -13 0 -20 7 -20 20
0 13 -7 20 -20 20 -19 0 -20 7 -20 105 l0 105 -45 0 -45 0 0 -105z m60 -6 c0
-49 -3 -57 -16 -52 -13 5 -13 7 -2 14 10 7 10 9 -2 9 -13 0 -13 1 0 10 13 9
13 10 0 10 -13 0 -13 1 0 10 13 9 13 10 0 10 -13 0 -13 1 0 10 8 5 10 10 4 10
-6 0 -11 6 -11 13 0 8 6 14 14 14 9 0 13 -17 13 -58z"/>
<path d="M1690 1704 l0 -105 41 3 41 3 1 103 2 102 -42 0 -43 0 0 -106z m50 0
c0 -41 -4 -63 -10 -59 -5 3 -10 33 -10 66 0 33 4 59 10 59 6 0 10 -29 10 -66z"/>
<path d="M1530 1510 c0 -5 5 -10 10 -10 20 0 11 -48 -10 -53 -11 -3 -20 -12
-20 -20 0 -9 -9 -18 -19 -22 -11 -3 -22 -14 -25 -23 -5 -14 -20 -18 -73 -20
-96 -5 -92 -12 5 -12 75 0 82 2 82 20 0 13 7 20 20 20 15 0 20 7 20 26 0 21 4
25 20 21 18 -5 20 0 20 39 0 32 -4 44 -15 44 -8 0 -15 -4 -15 -10z"/>
<path d="M1272 793 c1 -41 2 -43 5 -13 3 19 9 41 15 47 8 10 6 13 -6 13 -13 0
-16 -10 -14 -47z"/>
<path d="M2580 780 c0 -53 2 -60 20 -60 18 0 20 7 20 60 0 53 -2 60 -20 60
-18 0 -20 -7 -20 -60z m30 -6 c0 -24 -4 -44 -10 -44 -5 0 -10 23 -10 51 0 31
4 48 10 44 6 -3 10 -26 10 -51z"/>
<path d="M1764 680 c0 -63 1 -89 3 -57 2 31 2 83 0 115 -2 31 -3 5 -3 -58z"/>
<path d="M1906 713 c9 -62 14 -68 14 -15 0 23 0 45 1 49 0 4 -4 9 -10 11 -7 2
-9 -12 -5 -45z"/>
<path d="M2660 741 c0 -11 5 -23 12 -27 8 -5 9 -2 5 9 -3 9 -2 19 3 22 5 3 11
-3 13 -12 4 -14 5 -13 6 5 1 16 -5 22 -19 22 -13 0 -20 -7 -20 -19z"/>
<path d="M2540 700 c0 -13 7 -20 20 -20 18 0 19 2 8 20 -7 11 -16 20 -20 20
-5 0 -8 -9 -8 -20z"/>
<path d="M2500 650 c6 -11 15 -20 20 -20 6 0 10 9 10 20 0 13 -7 20 -20 20
-18 0 -19 -3 -10 -20z"/>
<path d="M2620 650 c0 -13 -7 -20 -20 -20 -13 0 -20 -7 -20 -20 0 -13 7 -20
20 -20 13 0 20 7 20 20 0 13 7 20 20 20 13 0 20 7 20 20 0 13 -7 20 -20 20
-13 0 -20 -7 -20 -20z"/>
<path d="M1862 550 c0 -44 3 -80 7 -80 5 0 8 26 8 58 0 31 3 67 7 80 5 16 3
22 -7 22 -10 0 -14 -19 -15 -80z"/>
<path d="M2450 610 c0 -13 -7 -20 -20 -20 -13 0 -20 -7 -20 -20 0 -13 7 -20
20 -20 13 0 20 7 20 20 0 13 7 20 20 20 13 0 20 7 20 20 0 13 -7 20 -20 20
-13 0 -20 -7 -20 -20z"/>
<path d="M2540 570 c0 -13 7 -20 19 -20 14 0 18 5 14 20 -3 11 -12 20 -19 20
-8 0 -14 -9 -14 -20z"/>
<path d="M2330 530 c0 -17 7 -20 41 -20 33 0 40 3 37 18 -2 10 -14 18 -28 20
l-25 2 25 -14 25 -15 -34 -1 c-25 0 -32 3 -27 15 3 8 1 15 -4 15 -6 0 -10 -9
-10 -20z"/>
<path d="M2494 529 c0 -12 7 -19 18 -19 11 0 18 7 18 18 0 10 -8 18 -18 19
-11 1 -18 -5 -18 -18z"/>
<path d="M2450 486 c0 -7 9 -16 20 -19 15 -4 20 0 20 14 0 12 -7 19 -20 19
-11 0 -20 -6 -20 -14z"/>
<path d="M2420 450 l25 -7 -25 -11 -25 -11 28 0 c21 -1 27 4 27 19 0 15 -6 20
-27 19 l-28 -1 25 -8z"/>
<path d="M2200 400 c0 -19 6 -20 83 -18 l82 2 -77 3 c-43 2 -78 8 -78 13 0 5
35 11 78 13 l77 3 -82 2 c-77 2 -83 1 -83 -18z"/>
</g>
</svg>
